<svg width="155" height="35" viewBox="0 0 155 35" fill="none" xmlns="http://www.w3.org/2000/svg">
<rect width="155" height="35" rx="15" fill="#F00303"/>
<path d="M14.065 21.75V18.9H11.2V17.4H14.065V14.55H15.565V17.4H18.415V18.9H15.565V21.75H14.065ZM21.6644 22.5L22.0844 21.6L26.4044 15.27V15.12H19.9094V13.68H28.5644V15.135L23.8994 22.5H21.6644ZM32.1222 23.7C31.5322 23.7 31.0322 23.54 30.6222 23.22C30.2222 22.9 29.8972 22.465 29.6472 21.915C29.3972 21.365 29.2122 20.75 29.0922 20.07C28.9822 19.38 28.9272 18.675 28.9272 17.955C28.9272 17.205 28.9822 16.505 29.0922 15.855C29.2122 15.195 29.3972 14.615 29.6472 14.115C29.8972 13.605 30.2222 13.21 30.6222 12.93C31.0322 12.64 31.5322 12.495 32.1222 12.495L32.3772 13.245C32.1972 13.425 32.0172 13.63 31.8372 13.86C31.6672 14.08 31.5122 14.365 31.3722 14.715C31.2322 15.055 31.1172 15.49 31.0272 16.02C30.9472 16.54 30.9072 17.185 30.9072 17.955C30.9072 18.985 30.9722 19.82 31.1022 20.46C31.2422 21.09 31.4222 21.6 31.6422 21.99C31.8622 22.37 32.1072 22.69 32.3772 22.95L32.1222 23.7ZM36.8014 22.5C35.9514 22.5 35.3364 22.455 34.9564 22.365C34.5764 22.275 34.3314 22.17 34.2214 22.05L34.8064 20.895C34.9664 20.915 35.2314 20.94 35.6014 20.97C35.9714 21 36.4914 21.025 37.1614 21.045C37.8414 21.055 38.7164 21.06 39.7864 21.06C40.1064 21.06 40.3464 21.005 40.5064 20.895C40.6764 20.785 40.7914 20.65 40.8514 20.49C40.9214 20.32 40.9564 20.155 40.9564 19.995V19.02C40.8664 19.03 40.6214 19.055 40.2214 19.095C39.8314 19.125 39.2214 19.14 38.3914 19.14H36.7564C35.7464 19.14 35.0364 18.93 34.6264 18.51C34.2264 18.08 34.0264 17.43 34.0264 16.56V16.35C34.0264 16.05 34.0464 15.745 34.0864 15.435C34.1364 15.115 34.2464 14.825 34.4164 14.565C34.5864 14.305 34.8564 14.095 35.2264 13.935C35.5964 13.765 36.1014 13.68 36.7414 13.68H40.2064C40.8864 13.68 41.4114 13.775 41.7814 13.965C42.1514 14.155 42.4164 14.395 42.5764 14.685C42.7464 14.975 42.8464 15.27 42.8764 15.57C42.9164 15.87 42.9364 16.13 42.9364 16.35V19.815C42.9364 20.015 42.9164 20.265 42.8764 20.565C42.8464 20.865 42.7514 21.165 42.5914 21.465C42.4314 21.755 42.1614 22 41.7814 22.2C41.4114 22.4 40.8864 22.5 40.2064 22.5H36.8014ZM37.1914 17.82H40.9564V16.17C40.9564 15.89 40.8614 15.645 40.6714 15.435C40.4914 15.225 40.1964 15.12 39.7864 15.12H37.1914C36.7314 15.12 36.4164 15.235 36.2464 15.465C36.0864 15.695 36.0064 15.93 36.0064 16.17V16.74C36.0064 17.08 36.0814 17.345 36.2314 17.535C36.3814 17.725 36.7014 17.82 37.1914 17.82ZM46.3359 22.5V15.12L44.5359 15.255L44.4309 13.98L48.3159 13.53V22.5H46.3359ZM53.0015 22.5C52.2515 22.5 51.6765 22.47 51.2765 22.41C50.8765 22.35 50.5965 22.285 50.4365 22.215C50.2765 22.135 50.1715 22.08 50.1215 22.05L50.7065 20.895C50.7665 20.905 50.8865 20.92 51.0665 20.94C51.2465 20.96 51.5215 20.98 51.8915 21C52.2715 21.01 52.7815 21.025 53.4215 21.045C54.0615 21.055 54.8665 21.06 55.8365 21.06C56.2065 21.06 56.4865 21.01 56.6765 20.91C56.8665 20.81 56.9915 20.68 57.0515 20.52C57.1215 20.35 57.1565 20.175 57.1565 19.995V19.635C57.1565 19.375 57.0865 19.16 56.9465 18.99C56.8065 18.81 56.5315 18.72 56.1215 18.72H51.8615V17.4H55.3565C55.8265 17.4 56.1665 17.31 56.3765 17.13C56.5865 16.94 56.6915 16.705 56.6915 16.425V15.96C56.6915 15.68 56.6115 15.445 56.4515 15.255C56.2915 15.065 55.9815 14.97 55.5215 14.97H55.1015C54.5815 14.97 54.0365 14.99 53.4665 15.03C52.8965 15.06 52.3615 15.1 51.8615 15.15C51.3615 15.19 50.9565 15.23 50.6465 15.27L50.4965 13.905C50.6865 13.875 51.0265 13.83 51.5165 13.77C52.0065 13.71 52.5965 13.655 53.2865 13.605C53.9765 13.555 54.7215 13.53 55.5215 13.53H55.9415C56.5515 13.53 57.0365 13.605 57.3965 13.755C57.7565 13.895 58.0265 14.085 58.2065 14.325C58.3965 14.555 58.5215 14.81 58.5815 15.09C58.6415 15.36 58.6715 15.625 58.6715 15.885V16.14C58.6715 16.59 58.5665 16.94 58.3565 17.19C58.1465 17.44 57.9515 17.625 57.7715 17.745C58.2115 17.875 58.5465 18.1 58.7765 18.42C59.0165 18.74 59.1365 19.135 59.1365 19.605V19.965C59.1365 20.255 59.0965 20.55 59.0165 20.85C58.9465 21.15 58.8015 21.425 58.5815 21.675C58.3615 21.925 58.0415 22.125 57.6215 22.275C57.2015 22.425 56.6465 22.5 55.9565 22.5H53.0015ZM60.7476 23.7L60.4926 22.95C60.7626 22.69 61.0076 22.37 61.2276 21.99C61.4476 21.6 61.6226 21.09 61.7526 20.46C61.8926 19.82 61.9626 18.985 61.9626 17.955C61.9626 17.185 61.9176 16.54 61.8276 16.02C61.7476 15.49 61.6376 15.055 61.4976 14.715C61.3576 14.365 61.1976 14.08 61.0176 13.86C60.8476 13.63 60.6726 13.425 60.4926 13.245L60.7476 12.495C61.3376 12.495 61.8326 12.64 62.2326 12.93C62.6426 13.21 62.9726 13.605 63.2226 14.115C63.4726 14.615 63.6526 15.195 63.7626 15.855C63.8826 16.505 63.9426 17.205 63.9426 17.955C63.9426 18.675 63.8826 19.38 63.7626 20.07C63.6526 20.75 63.4726 21.365 63.2226 21.915C62.9726 22.465 62.6426 22.9 62.2326 23.22C61.8326 23.54 61.3376 23.7 60.7476 23.7ZM66.5911 22.5L67.0111 21.6L71.3311 15.27V15.12H64.8361V13.68H73.4911V15.135L68.8261 22.5H66.5911ZM80.2739 22.5V20.88H74.3939V19.41L79.4789 13.68H82.2539V19.44H84.2639V20.88H82.2539V22.5H80.2739ZM76.8389 19.44H80.2739V15.51H80.1239L76.8539 19.29L76.8389 19.44ZM88.6711 22.5C88.0011 22.5 87.4661 22.47 87.0661 22.41C86.6661 22.35 86.3661 22.285 86.1661 22.215C85.9761 22.135 85.8411 22.08 85.7611 22.05L86.3461 20.895C86.5661 20.915 87.0911 20.95 87.9211 21C88.7511 21.04 89.9961 21.06 91.6561 21.06C92.0961 21.06 92.4011 20.965 92.5711 20.775C92.7411 20.575 92.8261 20.315 92.8261 19.995V19.425C92.8261 19.135 92.7411 18.885 92.5711 18.675C92.4111 18.465 92.1011 18.36 91.6411 18.36H87.4111L86.2111 18.51V13.68H92.9911C93.4911 13.68 93.8461 13.7 94.0561 13.74C94.2661 13.78 94.3711 13.82 94.3711 13.86L94.0711 15.12H88.1911V17.175C88.3211 17.155 88.5811 17.13 88.9711 17.1C89.3711 17.07 89.9111 17.055 90.5911 17.055H91.7761C92.8961 17.055 93.6811 17.26 94.1311 17.67C94.5811 18.07 94.8061 18.67 94.8061 19.47V19.815C94.8061 20.125 94.7811 20.44 94.7311 20.76C94.6811 21.07 94.5711 21.36 94.4011 21.63C94.2311 21.89 93.9611 22.1 93.5911 22.26C93.2211 22.42 92.7161 22.5 92.0761 22.5H88.6711ZM105.337 22.5V20.88H99.4574V19.41L104.542 13.68H107.317V19.44H109.327V20.88H107.317V22.5H105.337ZM101.902 19.44H105.337V15.51H105.187L101.917 19.29L101.902 19.44ZM113.72 22.5C112.76 22.5 112.06 22.3 111.62 21.9C111.19 21.49 110.975 20.845 110.975 19.965V19.8C110.975 19.33 111.065 18.91 111.245 18.54C111.435 18.17 111.77 17.895 112.25 17.715C111.97 17.575 111.76 17.36 111.62 17.07C111.49 16.78 111.425 16.445 111.425 16.065V15.9C111.425 15.51 111.505 15.145 111.665 14.805C111.825 14.465 112.105 14.195 112.505 13.995C112.905 13.785 113.46 13.68 114.17 13.68H116.735C117.435 13.68 117.98 13.785 118.37 13.995C118.77 14.195 119.05 14.465 119.21 14.805C119.38 15.145 119.465 15.51 119.465 15.9V16.065C119.465 16.435 119.4 16.765 119.27 17.055C119.14 17.335 118.925 17.555 118.625 17.715C119.105 17.895 119.44 18.17 119.63 18.54C119.82 18.91 119.915 19.33 119.915 19.8V19.965C119.915 20.845 119.695 21.49 119.255 21.9C118.825 22.3 118.135 22.5 117.185 22.5H113.72ZM114.605 17.28H116.315C116.705 17.28 116.995 17.2 117.185 17.04C117.385 16.88 117.485 16.615 117.485 16.245V16.17C117.485 15.8 117.41 15.535 117.26 15.375C117.11 15.205 116.795 15.12 116.315 15.12H114.605C114.145 15.12 113.83 15.195 113.66 15.345C113.49 15.495 113.405 15.77 113.405 16.17V16.245C113.405 16.615 113.495 16.88 113.675 17.04C113.865 17.2 114.175 17.28 114.605 17.28ZM114.155 21.06H116.765C117.135 21.06 117.42 20.975 117.62 20.805C117.83 20.635 117.935 20.365 117.935 19.995V19.65C117.935 19.33 117.83 19.075 117.62 18.885C117.41 18.695 117.125 18.6 116.765 18.6H114.155C113.795 18.6 113.505 18.69 113.285 18.87C113.065 19.04 112.955 19.3 112.955 19.65V19.995C112.955 20.365 113.06 20.635 113.27 20.805C113.49 20.975 113.785 21.06 114.155 21.06ZM124.565 22.5V21.045C124.735 20.935 124.99 20.77 125.33 20.55C125.68 20.33 126.065 20.085 126.485 19.815C126.915 19.545 127.35 19.27 127.79 18.99C128.23 18.7 128.635 18.43 129.005 18.18C129.385 17.92 129.685 17.705 129.905 17.535C130.225 17.285 130.445 17.045 130.565 16.815C130.695 16.575 130.76 16.34 130.76 16.11V15.81C130.76 15.56 130.66 15.355 130.46 15.195C130.26 15.035 129.93 14.955 129.47 14.955H129.02C128.44 14.955 127.86 14.975 127.28 15.015C126.7 15.055 126.18 15.1 125.72 15.15C125.27 15.19 124.935 15.225 124.715 15.255L124.565 13.89C124.845 13.84 125.23 13.785 125.72 13.725C126.21 13.665 126.775 13.615 127.415 13.575C128.055 13.535 128.725 13.515 129.425 13.515H129.845C130.475 13.515 130.98 13.59 131.36 13.74C131.74 13.88 132.03 14.065 132.23 14.295C132.44 14.525 132.58 14.78 132.65 15.06C132.72 15.33 132.755 15.595 132.755 15.855V16.17C132.755 16.7 132.58 17.215 132.23 17.715C131.89 18.205 131.335 18.665 130.565 19.095C129.725 19.555 129.015 19.945 128.435 20.265C127.865 20.575 127.455 20.8 127.205 20.94V21.06H133.205V22.5H124.565ZM137.026 22.5C136.176 22.5 135.561 22.455 135.181 22.365C134.801 22.275 134.556 22.17 134.446 22.05L135.031 20.895C135.191 20.915 135.456 20.94 135.826 20.97C136.196 21 136.716 21.025 137.386 21.045C138.066 21.055 138.941 21.06 140.011 21.06C140.331 21.06 140.571 21.005 140.731 20.895C140.901 20.785 141.016 20.65 141.076 20.49C141.146 20.32 141.181 20.155 141.181 19.995V19.02C141.091 19.03 140.846 19.055 140.446 19.095C140.056 19.125 139.446 19.14 138.616 19.14H136.981C135.971 19.14 135.261 18.93 134.851 18.51C134.451 18.08 134.251 17.43 134.251 16.56V16.35C134.251 16.05 134.271 15.745 134.311 15.435C134.361 15.115 134.471 14.825 134.641 14.565C134.811 14.305 135.081 14.095 135.451 13.935C135.821 13.765 136.326 13.68 136.966 13.68H140.431C141.111 13.68 141.636 13.775 142.006 13.965C142.376 14.155 142.641 14.395 142.801 14.685C142.971 14.975 143.071 15.27 143.101 15.57C143.141 15.87 143.161 16.13 143.161 16.35V19.815C143.161 20.015 143.141 20.265 143.101 20.565C143.071 20.865 142.976 21.165 142.816 21.465C142.656 21.755 142.386 22 142.006 22.2C141.636 22.4 141.111 22.5 140.431 22.5H137.026ZM137.416 17.82H141.181V16.17C141.181 15.89 141.086 15.645 140.896 15.435C140.716 15.225 140.421 15.12 140.011 15.12H137.416C136.956 15.12 136.641 15.235 136.471 15.465C136.311 15.695 136.231 15.93 136.231 16.17V16.74C136.231 17.08 136.306 17.345 136.456 17.535C136.606 17.725 136.926 17.82 137.416 17.82Z" fill="black"/>
</svg>
